<svg width="57" height="47" viewBox="0 0 57 47" fill="none" xmlns="http://www.w3.org/2000/svg">
<g clip-path="url(#clip0_2131_5636)">
<g clip-path="url(#clip1_2131_5636)">
<path d="M41.1866 4.25825L34.2608 11.5642C32.2447 10.4111 29.9432 9.88188 27.6257 10.0685C25.4016 10.2468 23.2842 11.074 21.5027 12.4305C19.884 11.9319 18.1985 11.6756 16.5184 11.6756H16.4491C13.7076 11.6924 11.0541 12.3608 8.64062 13.6282C9.67535 11.1019 11.1448 8.7928 12.9769 6.80685C15.545 4.02985 18.7399 1.98541 22.2628 0.871267C25.7856 -0.242873 29.5219 -0.390497 33.1141 0.439538C36.0342 1.11359 38.7784 2.41714 41.1866 4.25825Z" fill="#89BCD9"/>
<path d="M55.5971 35.3102C54.5998 38.6944 52.597 41.6468 49.8848 43.7359C47.1726 45.8249 43.8951 46.939 40.5376 46.9112H30.625V36.7586H40.5376C41.327 36.7586 42.1083 36.5942 42.8391 36.2739C43.5671 35.9564 44.2311 35.4884 44.7885 34.9007C45.3459 34.313 45.7912 33.6139 46.0926 32.8424C46.3939 32.0736 46.5513 31.2491 46.5513 30.4163C46.5513 29.5835 46.3939 28.759 46.0926 27.9903C45.7912 27.2215 45.3459 26.5224 44.7885 25.9319C44.2311 25.3442 43.5671 24.8763 42.8391 24.5587C42.1083 24.2384 41.327 24.0741 40.5376 24.0741V22.8095C40.5696 20.8932 40.1909 18.9936 39.4282 17.2528C39.0922 16.484 38.6841 15.757 38.2121 15.0802C37.6414 14.2585 36.972 13.5092 36.2253 12.8519C36.1933 12.824 36.1587 12.7934 36.1267 12.7656L42.7884 5.7409L42.8844 5.64062C43.5404 6.2534 44.1565 6.90517 44.7325 7.59316C46.9353 10.217 48.5434 13.3477 49.4208 16.7542C52.2049 18.7373 54.3064 21.6146 55.4185 24.957C56.5305 28.2994 56.5919 31.9288 55.5971 35.3102Z" fill="#89BCD9"/>
<path d="M28.9304 20.3672L21.954 27.7233C21.5513 26.7902 20.9433 25.9713 20.1752 25.339C19.4099 24.7068 18.5085 24.2806 17.5537 24.0968C16.5964 23.9129 15.6096 23.977 14.6816 24.2834C13.7535 24.587 12.9081 25.1274 12.2201 25.8516C11.5321 26.5757 11.0227 27.4671 10.732 28.4475C10.4413 29.4252 10.3826 30.4641 10.556 31.4752C10.732 32.4835 11.1347 33.4333 11.7347 34.241C11.7907 34.3134 11.8467 34.3886 11.9054 34.4583C12.4788 35.1658 13.1908 35.7312 13.9962 36.1156H13.9935L7.03578 43.455L7.01978 43.4717C6.38241 42.9536 5.78504 42.3854 5.23568 41.7754C3.55824 39.9204 2.30484 37.6698 1.59013 35.1936C0.643405 31.9069 0.691408 28.389 1.73147 25.1329C2.36351 23.1525 3.3449 21.3281 4.61431 19.7488C5.42502 18.7322 6.35841 17.8214 7.39314 17.0303C7.57182 16.8939 7.75316 16.7602 7.93717 16.632H7.93984C10.4653 14.8717 13.4255 13.9219 16.463 13.9024C17.4897 13.8996 18.5111 14.0027 19.5139 14.2088H19.5165C20.3406 14.3787 21.1513 14.6182 21.9407 14.9274C22.442 15.1224 22.9354 15.3452 23.4154 15.5931C25.5782 16.7156 27.4663 18.3506 28.9304 20.3672Z" fill="#89BCD9"/>
<path d="M28.4885 36.6836V46.8362H16.4611C13.7676 46.8501 11.1328 46.1259 8.80469 44.7528L16.4585 36.6836H28.4885Z" fill="#89BCD9"/>
</g>
</g>
<defs>
<clipPath id="clip0_2131_5636">
<rect width="57" height="47" fill="white"/>
</clipPath>
<clipPath id="clip1_2131_5636">
<rect width="55.3846" height="47" fill="white" transform="translate(0.914062 -0.0898438)"/>
</clipPath>
</defs>
</svg>
