<svg width="63" height="47" viewBox="0 0 63 47" fill="none" xmlns="http://www.w3.org/2000/svg">
<g clip-path="url(#clip0_2131_5632)">
<path d="M61.8904 17.7797C61.7162 17.6277 60.1508 16.3831 56.7885 16.3831C55.9187 16.3831 55.0202 16.474 54.1505 16.626C53.5133 11.979 49.8312 9.73146 49.6868 9.60941L48.7884 9.0625L48.2085 9.94332C47.4842 11.1281 46.933 12.4649 46.6144 13.8316C46.0059 16.474 46.3829 18.9645 47.6584 21.0911C46.1217 22.0019 43.6291 22.2149 43.1077 22.2448H1.94627C0.873629 22.2448 0.00383516 23.1556 0.00383516 24.2805C-0.0545921 28.0467 0.555036 31.8129 1.80075 35.3673C3.22064 39.2556 5.33725 42.141 8.06128 43.9026C11.1337 45.8772 16.1485 47.001 21.8005 47.001C24.3515 47.001 26.9024 46.7581 29.4236 46.2722C32.9303 45.6044 36.2938 44.3286 39.3948 42.476C41.9458 40.9274 44.2355 38.9527 46.1779 36.6442C49.4531 32.787 51.3956 28.4739 52.8154 24.6466H53.3953C56.9605 24.6466 59.1642 23.1579 60.3812 21.8821C61.1926 21.0923 61.8011 20.1205 62.2366 19.0267L62.4978 18.2368L61.8893 17.7809L61.8904 17.7797Z" fill="#89BCD9"/>
<path d="M5.79746 21.0222H11.3051C11.5663 21.0222 11.7978 20.8092 11.7978 20.5052V15.3331C11.7978 15.0591 11.595 14.8162 11.3051 14.8162H5.79746C5.53619 14.8162 5.30469 15.0292 5.30469 15.3331V20.5052C5.33335 20.8092 5.53619 21.0222 5.79746 21.0222ZM13.3908 21.0222H18.8984C19.1597 21.0222 19.3912 20.8092 19.3912 20.5052V15.3331C19.3912 15.0591 19.1883 14.8162 18.8984 14.8162H13.3908C13.1295 14.8162 12.898 15.0292 12.898 15.3331V20.5052C12.9267 20.8092 13.1295 21.0222 13.3908 21.0222ZM21.1308 21.0222H26.6383C26.8996 21.0222 27.1311 20.8092 27.1311 20.5052V15.3331C27.1311 15.0591 26.9283 14.8162 26.6383 14.8162H21.1308C20.8695 14.8162 20.638 15.0292 20.638 15.3331V20.5052C20.638 20.8092 20.8408 21.0222 21.1308 21.0222ZM28.7539 21.0222H34.2614C34.5227 21.0222 34.7542 20.8092 34.7542 20.5052V15.3331C34.7542 15.0591 34.5514 14.8162 34.2614 14.8162H28.7539C28.4926 14.8162 28.2611 15.0292 28.2611 15.3331V20.5052C28.2611 20.8092 28.4926 21.0222 28.7539 21.0222ZM13.3908 13.6302H18.8984C19.1597 13.6302 19.3912 13.3873 19.3912 13.1133V7.94118C19.3912 7.66715 19.1883 7.4242 18.8984 7.4242H13.3908C13.1295 7.4242 12.898 7.63721 12.898 7.94118V13.1133C12.9267 13.3873 13.1295 13.6302 13.3908 13.6302ZM21.1308 13.6302H26.6383C26.8996 13.6302 27.1311 13.3873 27.1311 13.1133V7.94118C27.1311 7.66715 26.9283 7.4242 26.6383 7.4242H21.1308C20.8695 7.4242 20.638 7.63721 20.638 7.94118V13.1133C20.638 13.3873 20.8408 13.6302 21.1308 13.6302ZM28.7539 13.6302H34.2614C34.5227 13.6302 34.7542 13.3873 34.7542 13.1133V7.94118C34.7542 7.66715 34.5227 7.4242 34.2614 7.4242H28.7539C28.4926 7.4242 28.2611 7.63721 28.2611 7.94118V13.1133C28.2611 13.3873 28.4926 13.6302 28.7539 13.6302ZM28.7539 6.20603H34.2614C34.5227 6.20603 34.7542 5.99302 34.7542 5.68905V0.516977C34.7542 0.242945 34.5227 0 34.2614 0H28.7539C28.4926 0 28.2611 0.213008 28.2611 0.516977V5.68905C28.2611 5.96308 28.4926 6.20603 28.7539 6.20603ZM36.4343 21.0222H41.9419C42.2031 21.0222 42.4346 20.8092 42.4346 20.5052V15.3331C42.4346 15.0591 42.2318 14.8162 41.9419 14.8162H36.4343C36.173 14.8162 35.9415 15.0292 35.9415 15.3331V20.5052C35.9702 20.8092 36.173 21.0222 36.4343 21.0222Z" fill="#89BCD9"/>
</g>
<defs>
<clipPath id="clip0_2131_5632">
<rect width="63" height="47" fill="white"/>
</clipPath>
</defs>
</svg>
