<svg width="22" height="20" viewBox="0 0 22 20" fill="none" xmlns="http://www.w3.org/2000/svg">
<path d="M19.6443 0H2.1827C0.982214 0 0.0109135 1.125 0.0109135 2.5L0 17.5C0 18.875 0.982214 20 2.1827 20H19.6443C20.8448 20 21.827 18.875 21.827 17.5V2.5C21.827 1.125 20.8448 0 19.6443 0ZM19.2077 5.3125L11.4919 10.8375C11.1427 11.0875 10.6843 11.0875 10.3351 10.8375L2.61924 5.3125C2.3464 5.1125 2.1827 4.775 2.1827 4.4125C2.1827 3.575 2.97938 3.075 3.60145 3.5125L10.9135 8.75L18.2255 3.5125C18.8476 3.075 19.6443 3.575 19.6443 4.4125C19.6443 4.775 19.4806 5.1125 19.2077 5.3125Z" fill="#89BCD9"/>
</svg>
