<svg width="38" height="47" viewBox="0 0 38 47" fill="none" xmlns="http://www.w3.org/2000/svg">
<g clip-path="url(#clip0_2131_5612)">
<g clip-path="url(#clip1_2131_5612)">
<path d="M37.9248 36.7149C37.7664 36.4251 37.573 36.0909 37.2953 35.7972C36.8787 35.3599 36.623 34.8065 36.4659 34.0023C36.3011 33.1526 35.9922 32.1539 35.1097 31.4738C35.6742 28.944 35.3082 26.4247 33.9792 23.6155C32.9422 21.4264 31.4626 19.5767 30.031 17.7884L29.7338 17.4163C28.4307 15.7833 27.8532 14.0681 27.9168 12.0173C27.9713 10.2786 27.8337 8.48238 27.5054 6.67966C26.9512 3.63685 25.1432 1.67618 22.4125 1.16056C21.8466 1.05483 21.2249 1 20.5669 1C20.0438 1 19.4792 1.03394 18.8874 1.10182C15.8283 1.45035 13.7102 3.43582 13.2209 6.41337C12.9652 7.97589 12.8977 9.67026 13.021 11.4521C13.2286 14.4597 12.5395 16.8106 10.8483 18.8509C9.9424 19.9448 9.08191 21.1954 8.13835 22.7866C6.91315 24.853 5.54518 27.6465 5.76452 31.0091C5.66588 31.1305 5.57243 31.2506 5.48028 31.3694C4.94296 32.0547 4.51855 32.5952 3.79433 32.8079C1.78261 33.3954 0.950671 34.8038 1.31927 36.9916C1.46593 37.8623 1.43997 38.5437 1.2375 39.2016C0.885777 40.3386 0.924713 41.2485 1.35431 41.9847C1.793 42.734 2.59768 43.2235 3.8138 43.4806C4.0617 43.5329 4.31089 43.572 4.55359 43.5994C6.41735 43.8044 7.84113 44.072 9.17925 44.7677C10.0475 45.2181 11.0326 45.3839 11.6984 45.4674C12.0099 45.5079 12.3123 45.5275 12.5966 45.5275C14.1956 45.5275 15.4402 44.91 16.2994 43.6921C16.6018 43.6595 16.9042 43.6242 17.2067 43.5903C18.4656 43.448 19.7674 43.2992 21.0354 43.2391C21.0977 43.2352 21.1613 43.2339 21.2249 43.2339C21.6467 43.2339 22.0919 43.294 22.5643 43.3579C22.9134 43.4049 23.2743 43.4532 23.6442 43.4806C24.4125 45.0836 25.8441 46 27.591 46C27.7766 46 27.9674 45.9896 28.1582 45.9687C29.7702 45.7951 31.2056 45.0027 32.4256 43.6138C33.094 42.8528 33.9364 42.2262 34.9993 41.7001L35.0863 41.657C35.7145 41.3464 36.3647 41.0239 36.9851 40.6206C38.427 39.6794 38.7697 38.2552 37.9248 36.7149ZM36.4192 39.7434C35.8248 40.1324 35.1784 40.447 34.5399 40.7642C33.4432 41.3072 32.4685 41.9886 31.6469 42.9232C30.6943 44.0067 29.5249 44.7703 28.0466 44.9309C26.4658 45.1006 25.1925 44.3944 24.5358 42.9311C24.3749 42.5747 24.1971 42.4677 23.8207 42.4455C22.8732 42.3893 21.9245 42.1505 20.9861 42.1962C19.2664 42.2784 17.5545 42.5081 15.8426 42.6922C15.7413 42.7026 15.6271 42.8227 15.5648 42.9206C14.6758 44.32 13.326 44.6215 11.8282 44.4323C11.0884 44.3383 10.3097 44.179 9.65557 43.8396C8.07735 43.0198 6.3888 42.7509 4.66651 42.5617C4.45236 42.5369 4.23821 42.5029 4.02795 42.4585C2.26932 42.0878 1.69825 41.2263 2.22909 39.511C2.51073 38.5972 2.49515 37.7266 2.3433 36.818C2.07074 35.202 2.53279 34.2634 4.08376 33.8105C5.39203 33.428 5.97218 32.3628 6.74702 31.4543C6.8171 31.372 6.82099 31.2076 6.81191 31.0849C6.57829 28.2156 7.61919 25.7015 9.02999 23.3218C9.81391 21.9995 10.6692 20.6993 11.6465 19.5193C13.6245 17.1318 14.2682 14.427 14.0567 11.3803C13.9464 9.79036 13.9879 8.15212 14.2462 6.58307C14.6654 4.02193 16.4344 2.43199 19.0042 2.13959C20.0646 2.01819 21.1808 1.99078 22.2217 2.18789C24.7512 2.66435 26.0491 4.4775 26.4839 6.86764C26.7889 8.54504 26.933 10.2825 26.8798 11.9847C26.8071 14.3148 27.5015 16.2872 28.9239 18.0703C30.4386 19.9683 31.9882 21.8402 33.0408 24.0646C34.231 26.5787 34.754 29.1581 33.9026 31.9816C34.9357 32.3902 35.2641 33.2622 35.4471 34.2034C35.6184 35.0767 35.9221 35.8638 36.5438 36.5191C36.7346 36.7201 36.8813 36.9721 37.0162 37.2188C37.5938 38.2722 37.4199 39.092 36.4192 39.7434Z" fill="#89BCD9"/>
<path d="M19.4206 10.0903C19.492 9.73391 19.6153 9.37362 19.7866 9.05511C20.59 7.56047 22.3421 7.53175 23.2117 8.98332C23.9048 10.1412 23.8152 11.6241 22.9534 12.6762C22.6108 12.5339 22.2967 12.4034 22.0812 12.3133C22.1344 11.6828 22.2487 11.1307 22.2084 10.5889C22.1734 10.1059 21.9333 9.61251 21.3531 9.6099C20.8119 9.60598 20.6055 10.0746 20.4796 10.5237C20.3992 10.8095 20.4018 11.1189 20.368 11.4191C19.3492 11.2142 19.2272 11.0615 19.4206 10.0903Z" fill="#89BCD9"/>
<path d="M15.4621 8.68415C15.9241 8.24294 16.4913 8.19725 16.978 8.60322C17.7022 9.20891 17.9462 10.0391 17.8398 10.9346C17.8112 11.167 17.3907 11.351 17.0481 11.6447C16.9611 11.1174 16.9481 10.2689 16.2784 10.0926C15.7774 9.96211 15.6853 10.7532 15.6788 11.0743C15.6749 11.2623 16.0201 12.3797 15.9254 12.4554C15.9124 12.4658 15.7697 12.5833 15.6321 12.6969C14.5782 11.8079 14.5016 9.60313 15.4634 8.68415H15.4621Z" fill="#89BCD9"/>
<path d="M22.705 12.8869C21.8237 12.4874 20.9503 12.0658 20.0586 11.6911C19.6277 11.5097 19.1631 11.4118 18.7127 11.2773C17.9119 11.3361 17.2812 11.6768 16.7049 12.1676C16.3116 12.5044 15.9132 12.8373 15.5005 13.1492C14.4777 13.922 14.4648 14.6126 15.4849 15.4206C15.9236 15.7704 16.3986 16.0746 16.8243 16.4388C17.8626 17.329 18.8866 17.4726 20.1041 16.8526C20.8711 16.4623 21.6382 16.0694 22.3948 15.6595C22.6388 15.5263 22.8724 15.3592 23.0762 15.1686C24.0055 14.298 23.8562 13.4103 22.705 12.8869ZM18.1131 15.9036C16.8684 15.8004 15.9885 15.042 15.2201 14.1492C15.2591 14.093 15.298 14.0356 15.3382 13.9795C15.5329 14.1505 15.7302 14.3189 15.9236 14.4925C17.4045 15.8292 18.5674 15.9936 20.3494 15.089C20.888 14.8162 21.3967 14.4859 21.9276 14.1988C22.1742 14.0643 22.4428 13.9716 22.7011 13.8607C22.7258 13.9272 22.7517 13.9938 22.7764 14.0604C21.2631 14.7796 19.9691 16.0576 18.1131 15.9036Z" fill="#89BCD9"/>
<path d="M15.0952 42.6878C14.5267 43.702 13.5325 43.9057 12.0996 43.9905C11.5428 43.8352 10.5694 43.7138 9.74009 43.2987C8.17224 42.5155 6.52004 42.2139 4.81592 42.0494C4.6433 42.0338 4.47328 42.0064 4.30326 41.9737C2.64456 41.6526 2.2526 41.0848 2.78473 39.4857C3.1118 38.5001 2.98461 37.5616 2.84963 36.5956C2.67311 35.3294 3.00407 34.6937 4.2137 34.306C5.2572 33.9705 6.00348 33.3465 6.63166 32.4641C7.69592 30.9708 8.90685 30.9251 10.0594 32.3545C10.6252 33.0555 11.0211 33.8922 11.5065 34.6611C12.2203 35.7928 12.9342 36.9246 13.6688 38.0433C14.0491 38.6215 14.4903 39.1607 14.8719 39.7389C15.4884 40.6736 15.6636 41.6722 15.0952 42.6878Z" fill="#89BCD9"/>
<path d="M24.6554 38.8734C22.0726 40.573 19.3561 41.2218 16.3658 39.9751C15.3041 39.5313 14.7811 38.6371 14.1789 37.7821C14.2308 37.726 14.2541 37.6764 14.2879 37.6672C15.5351 37.3344 15.9024 36.6256 15.2042 35.5108C14.685 34.6819 13.9556 33.9717 13.2535 33.276C12.8291 32.8543 12.2878 32.5463 11.7817 32.2147C9.7362 30.8689 9.07298 29.3638 9.51167 26.9384C9.8569 25.026 10.7888 23.3734 11.7804 21.7509C11.8336 21.7757 11.8855 21.7992 11.9374 21.824C11.6843 22.3357 11.4377 22.8513 11.1769 23.3591C10.4085 24.8485 9.84522 26.398 10.0749 28.1054C10.1645 28.779 10.4539 29.4251 10.6525 30.0843C10.7148 30.0648 10.7784 30.0452 10.8407 30.0243C10.9809 29.198 11.0328 28.3443 11.2807 27.5519C11.6869 26.2518 12.1736 24.9712 12.7135 23.7207C13.6584 21.529 14.6967 19.3764 15.1549 17.0085C15.2314 16.6077 15.2847 16.203 15.3703 15.6678C15.8453 16.0281 16.249 16.3049 16.6189 16.6221C17.7805 17.6207 18.8746 17.8008 20.201 17.1103C21.3782 16.4981 22.5255 15.8297 23.6599 15.1992C24.157 16.592 24.6294 18.1063 25.2355 19.5631C25.9766 21.3449 26.8618 23.0641 27.621 24.8381C28.013 25.7518 28.2933 26.7165 28.5763 27.672C28.793 28.4056 28.7606 28.4148 29.6613 28.5218C30.4725 25.5038 29.2525 23.1607 27.425 20.952C27.5185 21.0003 27.6327 21.029 27.7015 21.1021C29.6302 23.1568 30.8878 25.4829 30.5542 28.4252C30.5153 28.7764 30.6373 28.9108 30.9202 29.0662C31.4485 29.3546 31.9988 29.6444 32.4388 30.0465C32.7516 30.3311 32.9385 30.784 33.0994 31.1952C33.163 31.361 33.0059 31.6142 32.8904 31.8074C32.3453 30.3337 30.6425 29.1497 29.0409 29.1588C28.3167 29.1628 27.9027 29.4891 27.6742 30.2123C27.6184 30.3898 27.5613 30.6404 27.4289 30.707C26.0558 31.4028 25.8105 32.6964 25.621 34.0357C25.4224 35.4507 25.2148 36.8644 24.985 38.2742C24.95 38.4896 24.8254 38.7611 24.6554 38.8734Z" fill="#89BCD9"/>
<path d="M31.287 31.7664C30.8353 32.3917 30.2084 32.8146 29.4466 32.8303C29.1 32.8368 28.564 32.594 28.4342 32.3147C28.1668 31.7351 28.0228 31.0576 28.0007 30.4141C27.9358 28.5369 32.3136 30.3449 31.287 31.7664Z" fill="#89BCD9"/>
<path d="M36.0843 39.3396C35.5755 39.6633 35.0304 39.9348 34.4853 40.1933C33.2601 40.7755 32.1634 41.5117 31.2691 42.5599C30.5553 43.3967 29.6623 44.0024 28.5851 44.3026C26.3242 44.9318 24.5175 43.3419 24.8628 41.0131C24.9264 40.5836 24.9978 40.1476 25.1379 39.7416C25.7661 37.918 26.0166 36.0344 26.1438 34.1194C26.1827 33.5451 26.3268 32.9537 26.5461 32.4211C26.7226 31.9904 27.0847 31.6379 27.4261 31.1641C27.6766 31.8559 27.7947 32.348 28.0231 32.7827C28.4631 33.6221 29.1938 33.9667 30.0842 33.6717C30.7266 33.4602 31.3613 33.1339 31.9064 32.7305C32.8292 32.0491 34.1348 32.3023 34.6229 33.3466C34.6423 33.3858 34.6709 33.4224 34.68 33.4641C34.9772 34.9522 35.5885 36.2733 36.5243 37.4873C37.107 38.2431 36.9019 38.8201 36.0843 39.3396Z" fill="#89BCD9"/>
</g>
</g>
<defs>
<clipPath id="clip0_2131_5612">
<rect width="38" height="47" fill="white"/>
</clipPath>
<clipPath id="clip1_2131_5612">
<rect width="37.379" height="45" fill="white" transform="translate(1 1)"/>
</clipPath>
</defs>
</svg>
