<svg width="44" height="47" viewBox="0 0 44 47" fill="none" xmlns="http://www.w3.org/2000/svg">
<path fill-rule="evenodd" clip-rule="evenodd" d="M22.7789 44.972C23.5979 45.6493 24.558 45.9381 25.5945 45.9915C26.0231 46.0139 26.4642 45.9929 26.886 45.9161C27.555 45.7946 28.2222 45.6419 28.873 45.4459C30.1983 45.046 31.3435 44.355 32.1986 43.239C32.6857 42.6029 33.0856 41.9151 33.3424 41.1547C33.5545 40.5272 33.7537 39.8933 33.9123 39.2513C34.0375 38.7454 34.0997 38.223 34.1756 37.7062C34.2263 37.3643 34.2569 37.0188 34.2884 36.6738C34.3396 36.114 34.3931 35.5551 34.4301 34.9939C34.4562 34.6036 34.4552 34.2115 34.4703 33.8207C34.4753 33.7015 34.4945 33.5831 34.506 33.4647C34.5156 33.3546 34.5713 33.3167 34.6837 33.3185C35.0786 33.3244 35.4743 33.3345 35.8687 33.3167C36.3106 33.297 36.7558 33.2778 37.1908 33.2052C37.8099 33.1015 38.4241 32.9704 39.0316 32.8121C39.7482 32.6243 40.4058 32.2884 41.0392 31.9064C41.7759 31.4608 42.4486 30.9385 42.9929 30.2653C43.4677 29.6794 43.6926 29.0003 43.5778 28.2595C43.4115 27.1833 42.5071 26.4781 41.4555 26.4302C41.0744 26.4128 40.6878 26.453 40.3085 26.501C39.8492 26.5595 39.3968 26.6628 38.9389 26.7309C38.6226 26.7784 38.3022 26.7994 37.9869 26.8323L37.9782 26.7912C38.5678 25.6775 39.182 24.5766 39.7395 23.4478C40.1677 22.5813 40.5333 21.6842 40.9113 20.7931C41.5373 19.3179 42.0368 17.7975 42.4509 16.2514C42.8471 14.7717 43.1862 13.2759 43.2936 11.7404C43.3366 11.1276 43.3663 10.512 43.3621 9.89822C43.3594 9.40832 43.3064 8.91796 43.2575 8.42989C43.2017 7.87052 43.0326 7.3404 42.7987 6.83039C42.4907 6.15769 42.0122 5.60609 41.509 5.08237C41.1064 4.66285 40.6631 4.2808 40.2239 3.89874C39.5974 3.354 38.8927 2.91848 38.1615 2.53232C37.3326 2.09207 36.4546 1.75152 35.5456 1.51778C34.9918 1.37813 34.4343 1.25302 33.8739 1.14258C33.6747 1.10237 33.4736 1 33.273 1H29.4945C29.3579 1 29.2226 1.08957 29.085 1.10465C28.1807 1.20336 27.2879 1.38775 26.4185 1.65534C26.094 1.75542 25.7978 1.69692 25.4894 1.66813C25.2527 1.6462 25.02 1.58542 24.7833 1.57353C23.8826 1.52875 22.9809 1.46385 22.0797 1.47345C21.2169 1.48259 20.3628 1.62517 19.5278 1.8619C18.8291 2.06115 18.1449 2.3029 17.5179 2.67079C17.2501 2.828 17.0372 2.79829 16.7598 2.71877C15.8282 2.44585 14.8884 2.2014 13.9419 1.98575C13.3519 1.85367 12.7446 1.78695 12.1418 1.7248C11.5633 1.66471 10.9826 1.62858 10.4011 1.61649C9.83351 1.60415 9.26226 1.60461 8.69695 1.65488C7.79712 1.73485 6.91466 1.91765 6.05641 2.21287C5.11035 2.53632 4.22635 3.01866 3.44238 3.63917C2.64263 4.27211 2.001 5.04398 1.48597 5.92645C0.942595 6.85735 0.569227 7.85407 0.337985 8.90014C-0.119629 10.9652 -0.083804 13.2843 0.273091 15.3754C0.380029 16.0069 0.476456 16.6362 0.606244 17.2632C0.787672 18.1393 0.960875 19.0144 1.16195 19.8864C1.30819 20.5212 1.46677 21.1523 1.64089 21.7797C1.90595 22.7385 2.16461 23.6987 2.46486 24.646C2.74408 25.5267 3.06216 26.3945 3.37977 27.2628C3.81498 28.4635 4.34842 29.6262 4.9747 30.7392C5.52081 31.7039 6.1437 32.6074 6.98001 33.35C7.5316 33.8399 8.14444 34.216 8.85781 34.4043C9.41508 34.5523 9.99915 34.5686 10.5638 34.4519C11.2183 34.3188 11.8298 34.0261 12.3438 33.5996C12.4041 33.5507 12.4695 33.5127 12.5412 33.6032C12.8127 33.9469 13.1755 34.1763 13.5553 34.3742C14.5799 34.9089 15.6963 35.0693 16.8302 35.1342C17.1053 35.1497 17.3822 35.1104 17.6587 35.1031C18.1984 35.088 18.7221 34.9829 19.2372 34.8339C19.5077 34.7558 19.7714 34.6561 20.0465 34.5638C20.0607 34.8568 20.079 35.1383 20.0881 35.4202L20.126 36.9571C20.1334 37.1911 20.1425 37.4251 20.164 37.6582C20.2197 38.2587 20.2741 38.8592 20.3459 39.4578C20.3952 39.8705 20.4473 40.2859 20.5442 40.689C20.739 41.5013 21.0054 42.2947 21.3403 43.0599C21.6609 43.8026 22.1541 44.4581 22.7789 44.972ZM21.1378 37.309C21.1054 36.5874 21.0812 35.8655 21.0652 35.1433C21.046 34.2558 21.0396 33.3679 21.0272 32.4804L21.025 32.4465C20.5739 32.7175 20.1292 33.0137 19.659 33.2582C19.1074 33.5447 18.5087 33.7106 17.8886 33.7577C17.4028 33.7942 16.9097 33.8276 16.4262 33.7892C15.6328 33.7248 14.8395 33.6009 14.1293 33.2097C13.8414 33.0512 13.5407 32.8578 13.3419 32.6051C12.8662 31.9978 13.0942 31.2305 13.8117 30.8612C14.3075 30.6053 14.8486 30.4988 15.386 30.3745C15.8539 30.2685 16.3168 30.1419 16.7735 29.9952C17.2241 29.8476 17.5083 29.482 17.7894 29.1233L18.2345 28.5511L17.6994 28.4953C17.1683 28.446 16.6615 28.2993 16.1771 28.0845C15.7631 27.9012 15.7567 27.8811 15.4523 28.2111C14.945 28.7618 14.4515 29.3262 13.9538 29.8864C13.5878 30.2987 13.2244 30.7132 12.8593 31.1267C12.4992 31.5357 12.161 31.9676 11.7721 32.3478C11.1954 32.9127 10.4998 33.2522 9.6699 33.2138C9.1375 33.1892 8.65034 33.0027 8.21162 32.6979C7.30722 32.0682 6.69804 31.1861 6.14279 30.2607C5.43215 29.0744 4.88604 27.8108 4.41944 26.5129C4.09634 25.6153 3.77142 24.7173 3.48991 23.807C3.18326 22.8176 2.91409 21.8168 2.64949 20.815C2.44932 20.0596 2.272 19.2978 2.10292 18.5346C1.90826 17.6671 1.72817 16.7964 1.56274 15.9228C1.45261 15.3329 1.38908 14.7342 1.29997 14.1405C1.17978 13.3394 1.15784 12.5319 1.20171 11.728C1.24056 11.0037 1.3443 10.2816 1.44758 9.56233C1.59062 8.56699 1.91874 7.62785 2.39037 6.74082C2.68129 6.20028 3.03786 5.69774 3.45198 5.24461C4.1329 4.49101 4.95687 3.94673 5.87361 3.53771C6.51387 3.25209 7.19068 3.08072 7.88029 2.9459C8.90397 2.74665 9.93679 2.75488 10.9696 2.7759C11.4211 2.78549 11.8713 2.8673 12.3223 2.91254C13.2939 3.00897 14.2458 3.2137 15.1859 3.46551C15.8714 3.64922 16.5427 3.88778 17.2218 4.09434C17.2894 4.1149 17.3895 4.11308 17.4457 4.07697C18.3666 3.47556 19.3724 3.07889 20.4432 2.85176C20.8495 2.76584 21.269 2.72791 21.6844 2.70141C22.1889 2.66987 22.6985 2.63971 23.2021 2.66942C23.8076 2.70415 24.4113 2.79326 25.0132 2.87552C25.3057 2.91574 25.5908 3.01674 25.8833 3.04416C26.0241 3.05741 26.1726 2.9555 26.3207 2.92077C27.0765 2.74574 27.8292 2.55151 28.5919 2.41395C29.1595 2.31159 29.7399 2.26314 30.3167 2.23024C30.961 2.19322 31.609 2.16626 32.2525 2.19734C33.066 2.23664 33.8735 2.35226 34.6705 2.5378C35.6585 2.76767 36.6054 3.10128 37.5062 3.56468C38.1793 3.91154 38.8187 4.31279 39.3949 4.80634C39.7724 5.13036 40.159 5.4498 40.4995 5.81083C40.9199 6.25594 41.3486 6.7006 41.6128 7.27048C41.8115 7.70052 41.9532 8.14563 41.9925 8.61589C42.041 9.2013 42.0999 9.78854 42.0949 10.3749C42.0899 10.9352 42.0131 11.495 41.9592 12.0543C41.8353 13.3285 41.5588 14.5752 41.222 15.8054C40.941 16.8216 40.6225 17.8271 40.2673 18.8198C39.9433 19.7351 39.5691 20.6336 39.1911 21.5288C38.9125 22.1917 38.6101 22.8443 38.2844 23.4853C37.6657 24.6972 37.0222 25.8968 36.2777 27.0393C36.1493 27.2363 36.0273 27.4383 35.9021 27.6398C36.227 27.8587 36.5949 27.936 36.9651 27.9762C37.3174 28.0141 37.6766 28.0374 38.0285 28.0109C38.592 27.9689 39.1536 27.8884 39.7139 27.8103C40.2687 27.7326 40.8121 27.5749 41.3824 27.6165C41.9509 27.6581 42.3586 28.0904 42.3197 28.6233C42.2951 28.9606 42.1401 29.2498 41.9162 29.4971C40.8582 30.6643 39.5302 31.3717 38.0111 31.7204C37.434 31.8529 36.8389 31.921 36.248 31.9763C35.7434 32.0208 35.2365 32.0328 34.7303 32.0119C34.3593 31.9982 33.9914 31.9132 33.6121 31.8584C33.5737 32.2053 33.5376 32.5667 33.4937 32.9269L33.3169 34.3084C33.2634 34.7462 33.2218 35.1858 33.1665 35.6236C33.1126 36.0486 33.0454 36.4713 32.9887 36.8959C32.9362 37.2912 32.8973 37.6888 32.8379 38.0836C32.7479 38.6887 32.6615 39.2951 32.5432 39.8956C32.4015 40.6131 32.1849 41.3078 31.8298 41.9553C31.3975 42.7455 30.7846 43.3473 30.0041 43.7929C29.1998 44.2522 28.32 44.4912 27.4293 44.6914C26.7978 44.8335 26.1484 44.8564 25.509 44.7983C24.4008 44.6982 23.4548 44.2243 22.7396 43.3647C22.0573 42.5444 21.5953 41.6048 21.4303 40.5405C21.3526 40.034 21.2923 39.5251 21.2493 39.0145C21.1999 38.4469 21.1627 37.8783 21.1378 37.309ZM22.3836 30.0181C22.3905 30.3974 22.3512 30.7767 22.353 31.156C22.3608 32.9214 22.3736 34.6872 22.3886 36.4531C22.3914 36.7414 22.4056 37.0307 22.4261 37.3186C22.4695 37.9219 22.5125 38.5255 22.571 39.127C22.613 39.5543 22.6702 39.9802 22.7373 40.4043C22.8333 41.0043 23.1066 41.539 23.4164 42.0504C23.6833 42.49 24.0311 42.8629 24.4886 43.1207C25.2664 43.558 26.1031 43.5946 26.9467 43.4337C27.5166 43.3254 28.0769 43.1504 28.6299 42.9699C29.1741 42.7953 29.671 42.4981 30.0822 42.1011C30.4702 41.7255 30.7453 41.2671 30.9309 40.7612C31.2905 39.7805 31.4034 38.7472 31.5519 37.7226C31.6077 37.3387 31.6561 36.9539 31.7068 36.5696C31.7649 36.1322 31.8234 35.6954 31.8791 35.258C31.9212 34.9317 31.9587 34.6059 31.9984 34.28C32.0555 33.8121 32.1154 33.3446 32.1698 32.8766C32.2114 32.5146 32.2461 32.1513 32.2836 31.7885C32.3311 31.3246 32.3818 30.8621 32.4234 30.3974C32.4545 30.0455 32.4417 29.6867 32.5043 29.3408C32.619 28.7069 32.9188 28.1677 33.4809 27.8185C33.7158 27.6732 33.9818 27.5772 34.2423 27.4538L34.1975 27.3857C33.9566 27.0732 33.7099 26.7656 33.4736 26.4494C33.1025 25.9531 32.8356 25.3996 32.5674 24.8435C32.3133 24.3161 32.0025 23.817 31.7352 23.2956C31.2686 22.3862 30.7933 21.479 30.3633 20.5527C29.8226 19.3874 29.3967 18.1818 29.2628 16.8912C29.2057 16.3456 29.1911 15.7999 29.3021 15.2593C29.479 14.3956 29.9296 13.7201 30.6882 13.2567C31.392 12.8271 32.1757 12.6882 32.9787 12.6448C33.4768 12.6178 33.9781 12.6398 34.495 12.6398L34.4781 12.5525C34.1564 11.8798 33.8561 11.1956 33.5038 10.5394C33.0075 9.6126 32.3713 8.77721 31.6639 8.00168C31.1419 7.42503 30.5682 6.89729 29.9501 6.42503C29.3387 5.96209 28.6943 5.54851 28.0065 5.21079C27.1895 4.80437 26.3266 4.49751 25.4364 4.29679C24.5749 4.10576 23.7089 3.98877 22.8251 3.97918C22.0719 3.97095 21.3234 4.00568 20.5894 4.17523C19.4817 4.4316 18.4685 4.88769 17.5879 5.6262C17.1001 6.03506 16.6644 6.50225 16.2904 7.0173C15.8485 7.62283 15.493 8.27816 15.1886 8.96412C14.7709 9.90599 14.4844 10.8853 14.2879 11.8926C14.1901 12.3953 14.1133 12.9012 14.0352 13.4071C14.0077 13.5848 14.0059 13.7653 13.9895 13.9687L14.324 13.7946L14.6503 13.6484C15.7548 13.1434 16.8987 12.8184 18.128 12.8555C18.6508 12.871 19.1499 12.9747 19.6151 13.2037C20.5063 13.6433 21.0272 14.3905 21.2539 15.3356C21.4102 15.9882 21.5176 16.6536 21.6218 17.3176C21.7031 17.8358 21.7868 18.3596 21.7959 18.8824C21.8092 19.6465 21.7708 20.4124 21.7292 21.176C21.6936 21.8254 21.5593 22.4656 21.3307 23.0744C20.9176 24.1785 20.4569 25.2648 20.0269 26.3625C19.8847 26.7254 19.7755 27.1006 19.6416 27.4995L20.1845 27.5C20.2503 27.5014 20.3175 27.5032 20.381 27.5183C20.8751 27.6348 21.3042 27.8587 21.6556 28.239C22.1254 28.7435 22.3713 29.3339 22.3836 30.0181ZM12.948 24.7831C12.6679 24.1242 12.499 23.4234 12.448 22.7093C12.4005 22.0357 12.4804 21.3657 12.5499 20.6948C12.6166 20.0454 12.6733 19.3928 12.6925 18.7412C12.7249 17.6686 12.6527 16.5987 12.6016 15.5271C12.5709 14.8891 12.645 14.2434 12.7016 13.604C12.7528 13.0282 12.8168 12.451 12.926 11.8834C13.1084 10.931 13.351 9.99237 13.6961 9.08248C14.0228 8.21967 14.3994 7.38016 14.9295 6.62383C15.2937 6.10468 15.7059 5.62072 16.1022 5.11345L15.9843 5.0714C14.6941 4.66193 13.3826 4.34112 12.033 4.20173C11.3955 4.13547 10.7553 4.09708 10.1159 4.05869C9.91943 4.04727 9.72017 4.07377 9.52321 4.09251C9.03559 4.13958 8.54157 4.15786 8.06172 4.24926C7.24507 4.40464 6.46131 4.66604 5.73606 5.09151C5.09421 5.46919 4.53152 5.96749 4.07898 6.55893C3.57308 7.2129 3.2317 7.95232 2.98721 8.74019C2.69838 9.67018 2.56037 10.6276 2.52335 11.5932C2.49091 12.4401 2.47491 13.2914 2.62115 14.1351C2.72946 14.7625 2.80212 15.3973 2.92186 16.0229C3.08282 16.8759 3.26353 17.7251 3.46386 18.5698C3.75314 19.7781 4.04288 20.9873 4.38608 22.181C4.71421 23.3239 5.08392 24.4568 5.48608 25.5765C5.8142 26.49 6.19397 27.3867 6.59384 28.271C6.85433 28.8472 7.16966 29.402 7.50053 29.9413C7.85196 30.5144 8.25229 31.0582 8.79429 31.4741C9.47933 31.9987 10.009 32.0805 10.7055 31.5042C11.0034 31.2579 11.2552 30.9526 11.5148 30.6624C11.9266 30.2018 12.3242 29.7274 12.7345 29.2645C13.2569 28.6754 13.7856 28.0923 14.3107 27.505C14.4218 27.3812 14.5292 27.2532 14.637 27.128L14.4574 26.9712C13.81 26.3527 13.2962 25.608 12.948 24.7831ZM32.7547 7.23301C33.1842 7.73194 33.5917 8.24945 33.9758 8.78406C34.7122 9.81663 35.3049 10.9445 35.7376 12.1366C35.9295 12.6644 36.0831 13.1973 36.0145 13.7745C35.967 14.1789 35.9702 14.5889 35.935 14.9956C35.9053 15.3338 35.8514 15.6701 35.808 16.0074C35.7421 16.5156 35.6471 17.0228 35.6188 17.5333C35.5913 18.0196 35.6201 18.5104 35.6507 18.9971C35.6814 19.492 35.7481 19.9846 35.7933 20.4782C35.8445 21.0389 35.914 21.5983 35.9295 22.16C35.9423 22.6206 35.9012 23.0836 35.8614 23.5442C35.8103 24.0961 35.6763 24.6372 35.4638 25.1492C35.3162 25.512 35.1403 25.863 34.9744 26.2259L35.0411 26.2963L35.1426 26.3749L35.2454 26.1921C36.1084 24.8342 36.8751 23.4176 37.54 21.9525C37.9663 21.0068 38.3707 20.0514 38.7529 19.0871C39.3487 17.5881 39.8301 16.046 40.1929 14.4742C40.3574 13.7685 40.4835 13.052 40.595 12.3354C40.6823 11.7751 40.7545 11.2084 40.771 10.6431C40.7879 10.0436 40.755 9.4394 40.6997 8.84164C40.6581 8.39013 40.5466 7.93587 40.2641 7.56799C39.809 6.97709 39.3182 6.41224 38.7145 5.96484C38.2058 5.58873 37.6986 5.20165 37.1534 4.8854C36.2883 4.38316 35.3519 4.04955 34.3734 3.82197C33.4178 3.59941 32.4508 3.50344 31.4774 3.48287C30.9034 3.47054 30.3267 3.53223 29.7541 3.58661C29.2349 3.63506 28.719 3.71823 28.1966 3.78678C28.7574 4.10211 29.3108 4.38271 29.8318 4.71312C30.9286 5.40775 31.912 6.2436 32.7547 7.23301ZM18.5055 26.6842C18.8597 25.5509 19.3427 24.4678 19.8103 23.3792C20.19 22.4959 20.397 21.5659 20.466 20.6098C20.5003 20.1387 20.4912 19.6615 20.4679 19.189C20.4451 18.6633 20.3969 18.1389 20.3235 17.6178C20.2252 16.9534 20.1137 16.2884 19.9565 15.6363C19.786 14.9307 19.3565 14.439 18.6198 14.2575C18.1715 14.1474 17.7254 14.152 17.2716 14.2237C16.1643 14.3978 15.1507 14.8059 14.2065 15.4037C14.0164 15.5239 13.9113 15.6212 13.9447 15.8931C14.0141 16.4708 14.0292 17.0576 14.0265 17.6402C14.0228 18.4651 13.9876 19.29 13.9566 20.1144C13.9465 20.3827 13.9077 20.6505 13.8784 20.9178C13.8345 21.3273 13.7491 21.7363 13.7518 22.1453C13.7546 22.5667 13.7975 22.9976 13.8999 23.4057C14.2248 24.7 14.9121 25.7584 16.0396 26.5056C16.7328 26.9653 17.4997 27.1965 18.3419 27.2409C18.3977 27.0476 18.4493 26.8652 18.5055 26.6842ZM17.182 15.5842C17.0335 15.273 17.1185 15.0148 17.4622 14.8951C17.5463 14.8663 17.6322 14.8343 17.719 14.826C17.8392 14.8142 17.9603 14.8228 18.0814 14.8228C18.5179 14.8256 18.9374 14.8864 19.297 15.1633C19.5283 15.3415 19.5904 15.5769 19.4405 15.82C19.228 16.1641 18.9049 16.3369 18.5073 16.3698C17.8817 16.4214 17.4425 16.1299 17.182 15.5842ZM34.5366 15.4704L34.6787 14.2251C34.6993 14.0587 34.612 14.013 34.4721 14.0089C34.0321 13.997 33.5924 13.9811 33.1523 13.9737C32.6569 13.9646 32.1739 14.0441 31.7151 14.2324C31.206 14.4422 30.8184 14.7776 30.6599 15.3319C30.5438 15.7404 30.5072 16.1673 30.552 16.5896C30.6139 17.243 30.7618 17.8853 30.9921 18.4999C31.3001 19.3193 31.6218 20.1382 32.0071 20.9233C32.5285 21.9858 33.1181 23.015 33.6719 24.0615C33.8196 24.3408 33.9448 24.6328 34.0988 24.9586C34.4098 24.3104 34.5796 23.6035 34.5969 22.8848C34.612 22.2902 34.5649 21.6943 34.5302 21.0997C34.5087 20.736 34.4571 20.374 34.4219 20.0112C34.373 19.5057 34.298 18.9998 34.2861 18.493C34.2747 17.9775 34.3113 17.4593 34.3552 16.9442C34.3963 16.4516 34.4776 15.9621 34.5366 15.4704ZM33.5454 15.071C33.3817 15.5221 33.0326 15.7771 32.5793 15.8515C32.157 15.9215 31.7868 15.7656 31.5117 15.4284C31.3157 15.1884 31.3906 14.9046 31.6845 14.742C32.0217 14.5555 32.3923 14.5084 32.8297 14.4801C32.949 14.5016 33.1272 14.5203 33.2972 14.5683C33.5435 14.6378 33.6349 14.8242 33.5454 15.071ZM20.4761 28.9651C20.2348 28.7677 19.9149 28.7563 19.6855 28.9729C19.4003 29.2425 19.1494 29.5505 18.8985 29.854C18.6093 30.205 18.3369 30.5697 17.964 30.8416C17.4206 31.2369 16.7858 31.4005 16.1488 31.5554C15.6424 31.6788 15.1333 31.7935 14.6256 31.9114L14.6192 31.9772C14.77 32.0467 14.9158 32.134 15.0735 32.1838C15.8481 32.4287 16.6364 32.5512 17.4553 32.4817C18.0458 32.431 18.6088 32.3021 19.1421 32.0494C19.8765 31.7016 20.4418 31.15 20.9221 30.5093C21.0026 30.4024 21.0391 30.2443 21.0483 30.1063C21.0807 29.6191 20.8335 29.2567 20.4761 28.9651ZM34.6179 28.754C34.2382 28.8815 33.9292 29.0757 33.8374 29.4866C33.7748 29.7644 33.7519 30.0519 33.7277 30.3366C33.7231 30.3869 33.7857 30.4792 33.8333 30.492C34.1257 30.5692 34.42 30.6601 34.7189 30.6871C35.0868 30.7205 35.4606 30.71 35.8308 30.6917C36.2302 30.6716 36.6324 30.6455 37.0263 30.5797C37.9536 30.4234 38.8516 30.1702 39.6486 29.6438C39.9365 29.4541 40.2207 29.2604 40.5068 29.0675L40.4831 29.0268C40.1782 29.0721 39.8743 29.1274 39.5681 29.1598C38.9448 29.2265 38.321 29.2969 37.6954 29.333C37.3933 29.3504 37.0871 29.2923 36.7827 29.2677C36.2718 29.2261 35.7728 29.1127 35.3409 28.8395C35.0918 28.6822 34.8834 28.6649 34.6179 28.754Z" fill="#89BCD9"/>
</svg>
