<svg width="36" height="47" viewBox="0 0 36 47" fill="none" xmlns="http://www.w3.org/2000/svg">
<path fill-rule="evenodd" clip-rule="evenodd" d="M4.35443 8.06152C3.76974 8.60842 3.6735 8.99262 3.6735 9.19505C3.6735 9.39747 3.76974 9.78168 4.35443 10.3286C4.94216 10.8783 5.89229 11.4579 7.2197 11.9831C9.86376 13.0292 13.642 13.7166 17.9083 13.7166C22.1746 13.7166 25.9529 13.0292 28.5969 11.9831C29.9243 11.4579 30.8745 10.8783 31.4622 10.3286C32.0469 9.78168 32.1431 9.39747 32.1431 9.19505C32.1431 8.99262 32.0469 8.60842 31.4622 8.06152C30.8745 7.51179 29.9243 6.93215 28.5969 6.407C25.9529 5.36094 22.1746 4.6735 17.9083 4.6735C13.642 4.6735 9.86376 5.36094 7.2197 6.407C5.89229 6.93215 4.94216 7.51179 4.35443 8.06152ZM5.8683 2.99111C9.041 1.73591 13.2985 1 17.9083 1C22.5181 1 26.7756 1.73591 29.9483 2.99111C31.5293 3.61658 32.9328 4.40704 33.9716 5.3787C35.0134 6.3532 35.8166 7.64167 35.8166 9.19505C35.8166 10.7484 35.0134 12.0369 33.9716 13.0114C32.9328 13.9831 31.5293 14.7735 29.9483 15.399C26.7756 16.6542 22.5181 17.3901 17.9083 17.3901C13.2985 17.3901 9.041 16.6542 5.8683 15.399C4.28733 14.7735 2.88384 13.9831 1.84503 13.0114C0.803195 12.0369 0 10.7484 0 9.19505C0 7.64167 0.803195 6.3532 1.84503 5.3787C2.88384 4.40704 4.28733 3.61658 5.8683 2.99111Z" fill="#89BCD9"/>
<path fill-rule="evenodd" clip-rule="evenodd" d="M1.83675 7.35867C2.85116 7.35867 3.6735 8.18064 3.6735 9.19505V18.7329C3.6735 18.9354 3.76979 19.3197 4.35443 19.8665C4.94213 20.4163 5.89223 20.9959 7.21962 21.521C9.86364 22.567 13.6419 23.2544 17.9083 23.2544C22.1747 23.2544 25.953 22.567 28.597 21.521C29.9244 20.9959 30.8745 20.4163 31.4622 19.8665C32.0468 19.3197 32.1431 18.9354 32.1431 18.7329V9.19505C32.1431 8.18064 32.9655 7.35867 33.9799 7.35867C34.9943 7.35867 35.8166 8.18064 35.8166 9.19505V18.7329C35.8166 20.2863 35.0135 21.5748 33.9716 22.5493C32.9328 23.521 31.5293 24.3115 29.9484 24.9369C26.7757 26.1921 22.5182 26.9279 17.9083 26.9279C13.2985 26.9279 9.04094 26.1921 5.86824 24.9369C4.28728 24.3115 2.88379 23.521 1.84498 22.5493C0.803125 21.5748 0 20.2863 0 18.7329V9.19505C0 8.18064 0.822341 7.35867 1.83675 7.35867Z" fill="#89BCD9"/>
<path fill-rule="evenodd" clip-rule="evenodd" d="M1.83675 16.8961C2.85116 16.8961 3.6735 17.7185 3.6735 18.7329V28.2703C3.6735 28.4729 3.76979 28.8571 4.35443 29.404C4.94213 29.9537 5.89223 30.5333 7.21962 31.0585C9.86364 32.1045 13.6419 32.7919 17.9083 32.7919C22.1747 32.7919 25.953 32.1045 28.597 31.0585C29.9244 30.5333 30.8745 29.9537 31.4622 29.404C32.0468 28.8571 32.1431 28.4729 32.1431 28.2703V18.7329C32.1431 17.7185 32.9655 16.8961 33.9799 16.8961C34.9943 16.8961 35.8166 17.7185 35.8166 18.7329V28.2703C35.8166 29.8237 35.0135 31.1122 33.9716 32.0868C32.9328 33.0585 31.5293 33.8489 29.9484 34.4744C26.7757 35.7295 22.5182 36.4654 17.9083 36.4654C13.2985 36.4654 9.04094 35.7295 5.86824 34.4744C4.28728 33.8489 2.88379 33.0585 1.84498 32.0868C0.803125 31.1122 0 29.8237 0 28.2703V18.7329C0 17.7185 0.822341 16.8961 1.83675 16.8961Z" fill="#89BCD9"/>
<path fill-rule="evenodd" clip-rule="evenodd" d="M1.83675 26.4308C2.85116 26.4308 3.6735 27.2531 3.6735 28.2675V37.805C3.6735 38.0075 3.76979 38.3918 4.35443 38.9386C4.94213 39.4884 5.89223 40.068 7.21962 40.5931C9.86364 41.6391 13.6419 42.3265 17.9083 42.3265C22.1747 42.3265 25.953 41.6391 28.597 40.5931C29.9244 40.068 30.8745 39.4884 31.4622 38.9386C32.0468 38.3918 32.1431 38.0075 32.1431 37.805V28.2675C32.1431 27.2531 32.9655 26.4308 33.9799 26.4308C34.9943 26.4308 35.8166 27.2531 35.8166 28.2675V37.805C35.8166 39.3583 35.0135 40.6469 33.9716 41.6214C32.9328 42.5931 31.5293 43.3836 29.9484 44.009C26.7757 45.2642 22.5182 46 17.9083 46C13.2985 46 9.04094 45.2642 5.86824 44.009C4.28728 43.3836 2.88379 42.5931 1.84498 41.6214C0.803125 40.6469 0 39.3583 0 37.805V28.2675C0 27.2531 0.822341 26.4308 1.83675 26.4308Z" fill="#89BCD9"/>
</svg>
