<svg width="59" height="60" viewBox="0 0 59 60" fill="none" xmlns="http://www.w3.org/2000/svg">
<g clip-path="url(#clip0_81912_2933)">
<path d="M34.1352 59.0047C32.6021 60.9344 29.493 59.8784 29.4555 57.4126L28.9141 21.3633H53.1542C57.5445 21.3633 59.9942 26.4343 57.2657 29.8704L34.1352 59.0047Z" fill="url(#paint0_linear_81912_2933)"/>
<path d="M34.1352 59.0047C32.6021 60.9344 29.493 59.8784 29.4555 57.4126L28.9141 21.3633H53.1542C57.5445 21.3633 59.9942 26.4343 57.2657 29.8704L34.1352 59.0047Z" fill="url(#paint1_linear_81912_2933)" fill-opacity="0.2"/>
<path d="M24.2768 0.996889C25.8099 -0.932889 28.919 0.123128 28.9565 2.58895L29.1924 38.6383H5.25778C0.867539 38.6383 -1.58221 33.5672 1.14628 30.1312L24.2768 0.996889Z" fill="#89BCD9"/>
</g>
<defs>
<linearGradient id="paint0_linear_81912_2933" x1="26.9736" y1="34.0033" x2="48.5174" y2="43.0358" gradientUnits="userSpaceOnUse">
<stop stop-color="#5496BC"/>
<stop offset="1" stop-color="#89BCD9"/>
</linearGradient>
<linearGradient id="paint1_linear_81912_2933" x1="28.0028" y1="11.693" x2="37.8286" y2="30.1867" gradientUnits="userSpaceOnUse">
<stop/>
<stop offset="1" stop-opacity="0"/>
</linearGradient>
<clipPath id="clip0_81912_2933">
<rect width="58.4187" height="60" fill="white"/>
</clipPath>
</defs>
</svg>
