<svg width="20" height="24" viewBox="0 0 20 24" fill="none" xmlns="http://www.w3.org/2000/svg">
<path d="M3.95948 10.0418C5.53453 13.6898 8.0721 16.6676 11.1675 18.5367L13.5738 15.7008C13.8691 15.3527 14.3066 15.2367 14.6895 15.3914C15.9145 15.8684 17.238 16.1262 18.5943 16.1262C19.1958 16.1262 19.688 16.7062 19.688 17.4152V21.9141C19.688 22.623 19.1958 23.2031 18.5943 23.2031C8.32367 23.2031 0 13.3934 0 1.28906C0 0.580078 0.492201 0 1.09378 0H4.92201C5.52359 0 6.01579 0.580078 6.01579 1.28906C6.01579 2.90039 6.23455 4.44727 6.63925 5.89102C6.75956 6.34219 6.67206 6.84492 6.3658 7.20586L3.95948 10.0418Z" fill="#89BCD9"/>
</svg>
