<svg width="20" height="24" viewBox="0 0 20 24" fill="none" xmlns="http://www.w3.org/2000/svg">
<path d="M4.90332 1C4.90878 1.00373 4.91888 1.0104 4.93164 1.02539C4.97124 1.07206 5.01562 1.16321 5.01562 1.28906C5.01563 2.98597 5.24574 4.61903 5.67285 6.14746V6.14844C5.71877 6.32064 5.67338 6.47604 5.60352 6.55859L3.19727 9.39453L2.79492 9.86816L3.04102 10.4385C4.69102 14.2601 7.36108 17.4063 10.6504 19.3926L11.3789 19.833L11.9297 19.1836L14.3359 16.3477C14.3419 16.3406 14.3481 16.336 14.3525 16.332C15.6779 16.8445 17.1082 17.1226 18.5752 17.125C18.5805 17.1285 18.591 17.1355 18.6045 17.1514C18.6441 17.198 18.6884 17.2893 18.6885 17.415V21.9141C18.6885 22.0399 18.6441 22.1311 18.6045 22.1777C18.5918 22.1927 18.5807 22.1983 18.5752 22.2021C9.01301 22.1899 1 12.9936 1 1.28906C1 1.16321 1.04439 1.07206 1.08398 1.02539C1.09669 1.01045 1.10682 1.00376 1.1123 1H4.90332Z" stroke="#F8F5EC" stroke-width="2"/>
</svg>
